<svg width="672" height="672" viewBox="0 0 672 672" fill="none" xmlns="http://www.w3.org/2000/svg">
<path fill-rule="evenodd" clip-rule="evenodd" d="M366.436 598.872L381.613 573.224C393.374 553.345 399.254 543.377 408.718 537.889C418.182 532.373 430.082 532.177 453.882 531.758C489.05 531.171 511.086 529.016 529.566 521.344C546.552 514.309 561.986 503.997 574.987 490.997C587.988 477.997 598.3 462.564 605.336 445.578C616.005 419.874 616.006 387.254 616.008 322.014L616.008 294.014C616.011 202.37 616.012 156.534 595.377 122.878C583.84 104.039 568.009 88.1976 549.178 76.6486C515.494 56.0117 469.658 56.0106 378.014 56.0082L294.014 56.0061C202.37 56.0037 156.534 56.0026 122.878 76.6377C104.039 88.1744 88.1976 104.005 76.6486 122.837C56.0118 156.52 56.0105 202.384 56.0082 294L56.0075 322C56.0058 387.24 56.005 419.86 66.6443 445.564C73.6828 462.553 83.9991 477.988 97.004 490.989C110.009 503.99 125.448 514.301 142.438 521.334C160.918 529.007 182.954 531.135 218.122 531.752C241.922 532.173 253.822 532.369 263.286 537.885C272.722 543.373 278.63 553.314 290.389 573.222L305.564 598.87C319.088 621.719 352.884 621.72 366.436 598.872Z" fill="url(#paint0_linear_2_9)"/>
<path fill-rule="evenodd" clip-rule="evenodd" d="M345.005 141.711C290.376 141.711 246.395 183.819 246.395 235.441C246.395 244.284 247.686 252.839 250.07 260.917C259.943 263.673 269.2 267.807 277.544 273.166C279.26 274.168 280.748 275.493 281.92 277.063C283.091 278.632 283.922 280.414 284.361 282.3C284.801 284.187 284.84 286.139 284.478 288.04C284.115 289.942 283.357 291.753 282.25 293.365C281.143 294.978 279.709 296.358 278.035 297.423C276.36 298.489 274.48 299.217 272.506 299.565C270.532 299.913 268.506 299.874 266.549 299.449C264.591 299.024 262.743 298.222 261.115 297.092C249.532 289.697 235.935 285.774 222.041 285.818C183.085 285.818 151.798 315.868 151.798 352.541C151.798 389.214 183.085 419.245 222.041 419.245H420.691C475.32 419.245 519.302 377.137 519.302 325.515C519.302 284.612 491.689 249.681 452.992 236.934C442.596 233.501 431.681 231.755 420.691 231.766C409.11 231.766 398.045 233.68 387.755 237.125C384.048 238.291 380.014 238.011 376.52 236.343C373.025 234.676 370.348 231.755 369.064 228.207C367.779 224.66 367.989 220.768 369.649 217.368C371.309 213.968 374.286 211.331 377.942 210.022C397.206 203.53 417.792 201.529 438.014 204.185C431.075 185.81 418.417 169.948 401.77 158.766C385.123 147.585 365.298 141.628 345.005 141.711ZM471.248 212.932C460.143 155.951 407.739 113 345.005 113C274.246 113 216.598 167.665 216.598 235.441C216.598 242.867 217.273 250.109 218.624 257.165C165.107 258.888 122 300.767 122 352.541C122 405.388 166.955 447.956 222.041 447.956H420.691C491.431 447.956 549.099 393.291 549.099 325.515C549.099 274.908 516.938 231.632 471.248 212.932Z" fill="#FEFEFE"/>
<defs>
<linearGradient id="paint0_linear_2_9" x1="336.014" y1="56.0071" x2="336" y2="616.007" gradientUnits="userSpaceOnUse">
<stop stop-color="#D0D3E5"/>
<stop offset="0.677885" stop-color="#7B81FF"/>
<stop offset="1" stop-color="#5B3FFF"/>
</linearGradient>
</defs>
</svg>
